<?xml version="1.0" encoding="UTF-8"?>
<!DOCTYPE svg PUBLIC "-//W3C//DTD SVG 1.1//EN" "http://www.w3.org/Graphics/SVG/1.1/DTD/svg11.dtd">
<svg xmlns="http://www.w3.org/2000/svg" version="1.1" width="436px" height="486px" style="shape-rendering:geometricPrecision; text-rendering:geometricPrecision; image-rendering:optimizeQuality; fill-rule:evenodd; clip-rule:evenodd" xmlns:xlink="http://www.w3.org/1999/xlink">
<g><path style="opacity:0.981" fill="#5865F2" d="M 238.5,-0.5 C 252.167,-0.5 265.833,-0.5 279.5,-0.5C 340.804,8.28639 384.304,40.9531 410,97.5C 424.698,132.84 433.198,169.507 435.5,207.5C 435.5,229.833 435.5,252.167 435.5,274.5C 432.892,317.926 421.392,358.926 401,397.5C 381.129,431.705 353.295,457.205 317.5,474C 302.558,479.949 287.224,483.782 271.5,485.5C 263.167,485.5 254.833,485.5 246.5,485.5C 216.908,482.287 192.075,469.62 172,447.5C 157.82,429.828 146.153,410.495 137,389.5C 128.816,370.951 121.816,351.951 116,332.5C 105.768,378.825 95.6018,425.158 85.5,471.5C 56.8411,472.5 28.1744,472.833 -0.5,472.5C -0.5,471.5 -0.5,470.5 -0.5,469.5C 21.317,372.221 43.4836,274.888 66,177.5C 73.0691,150.694 82.4024,124.694 94,99.5C 114.998,57.1703 147.498,27.3369 191.5,10C 206.945,4.8807 222.612,1.3807 238.5,-0.5 Z M 244.5,30.5 C 269.631,27.6547 290.131,35.988 306,55.5C 317.233,71.9732 325.233,89.9732 330,109.5C 338.699,150.021 342.866,191.021 342.5,232.5C 343.116,278.11 338.283,323.11 328,367.5C 322.556,389.055 312.889,408.388 299,425.5C 267.063,453.326 234.897,453.492 202.5,426C 191.415,414.325 181.915,401.491 174,387.5C 155.535,351.603 140.701,314.27 129.5,275.5C 136.835,237.661 145.001,199.994 154,162.5C 161.905,131.106 173.905,101.44 190,73.5C 200.704,56.1279 215.204,42.9613 233.5,34C 237.333,32.9662 240.999,31.7995 244.5,30.5 Z"/></g>
<g><path style="opacity:0.057" fill="#000000" d="M 36.5,0.5 C 38.6062,0.76216 39.7729,1.76216 40,3.5C 38.2714,3.02568 37.1047,2.02568 36.5,0.5 Z"/></g>
</svg>
